<svg width="1034" height="640" viewBox="0 0 1034 640" fill="none" xmlns="http://www.w3.org/2000/svg">
<mask id="mask0_7101_741" style="mask-type:alpha" maskUnits="userSpaceOnUse" x="-1" y="-1" width="1036" height="642">
<rect x="0.00012207" y="0.000183105" width="49.2311" height="49.2311" stroke="white" stroke-opacity="0.04" stroke-width="0.984621"/>
<rect x="49.2312" y="0.000183105" width="49.2311" height="49.2311" stroke="white" stroke-opacity="0.04" stroke-width="0.984621"/>
<rect x="98.4623" y="0.000183105" width="49.2311" height="49.2311" stroke="white" stroke-opacity="0.04" stroke-width="0.984621"/>
<rect x="147.693" y="0.000183105" width="49.2311" height="49.2311" stroke="white" stroke-opacity="0.04" stroke-width="0.984621"/>
<rect x="196.924" y="0.000183105" width="49.2311" height="49.2311" stroke="white" stroke-opacity="0.04" stroke-width="0.984621"/>
<rect x="246.156" y="0.000183105" width="49.2311" height="49.2311" stroke="white" stroke-opacity="0.04" stroke-width="0.984621"/>
<rect x="295.387" y="0.000183105" width="49.2311" height="49.2311" stroke="white" stroke-opacity="0.04" stroke-width="0.984621"/>
<rect x="344.618" y="0.000183105" width="49.2311" height="49.2311" stroke="white" stroke-opacity="0.04" stroke-width="0.984621"/>
<rect x="393.849" y="0.000183105" width="49.2311" height="49.2311" stroke="white" stroke-opacity="0.04" stroke-width="0.984621"/>
<rect x="443.08" y="0.000183105" width="49.2311" height="49.2311" stroke="white" stroke-opacity="0.04" stroke-width="0.984621"/>
<rect x="492.311" y="0.000183105" width="49.2311" height="49.2311" stroke="white" stroke-opacity="0.04" stroke-width="0.984621"/>
<rect x="541.542" y="0.000183105" width="49.2311" height="49.2311" stroke="white" stroke-opacity="0.04" stroke-width="0.984621"/>
<rect x="590.773" y="0.000183105" width="49.2311" height="49.2311" stroke="white" stroke-opacity="0.04" stroke-width="0.984621"/>
<rect x="640.004" y="0.000183105" width="49.2311" height="49.2311" stroke="white" stroke-opacity="0.04" stroke-width="0.984621"/>
<rect x="689.235" y="0.000183105" width="49.2311" height="49.2311" stroke="white" stroke-opacity="0.04" stroke-width="0.984621"/>
<rect x="738.466" y="0.000183105" width="49.2311" height="49.2311" stroke="white" stroke-opacity="0.04" stroke-width="0.984621"/>
<rect x="787.697" y="0.000183105" width="49.2311" height="49.2311" stroke="white" stroke-opacity="0.04" stroke-width="0.984621"/>
<rect x="836.928" y="0.000183105" width="49.2311" height="49.2311" stroke="white" stroke-opacity="0.04" stroke-width="0.984621"/>
<rect x="886.159" y="0.000183105" width="49.2311" height="49.2311" stroke="white" stroke-opacity="0.04" stroke-width="0.984621"/>
<rect x="935.391" y="0.000183105" width="49.2311" height="49.2311" stroke="white" stroke-opacity="0.04" stroke-width="0.984621"/>
<rect x="984.622" y="0.000183105" width="49.2311" height="49.2311" stroke="white" stroke-opacity="0.04" stroke-width="0.984621"/>
<rect x="0.00012207" y="49.2374" width="49.2311" height="49.2311" stroke="white" stroke-opacity="0.04" stroke-width="0.984621"/>
<rect x="49.2312" y="49.2374" width="49.2311" height="49.2311" stroke="white" stroke-opacity="0.04" stroke-width="0.984621"/>
<rect x="98.4623" y="49.2374" width="49.2311" height="49.2311" fill="white" fill-opacity="0.04" stroke="white" stroke-opacity="0.04" stroke-width="0.984621"/>
<rect x="147.693" y="49.2374" width="49.2311" height="49.2311" stroke="white" stroke-opacity="0.04" stroke-width="0.984621"/>
<rect x="196.924" y="49.2374" width="49.2311" height="49.2311" stroke="white" stroke-opacity="0.04" stroke-width="0.984621"/>
<rect x="246.156" y="49.2374" width="49.2311" height="49.2311" stroke="white" stroke-opacity="0.04" stroke-width="0.984621"/>
<rect x="295.387" y="49.2374" width="49.2311" height="49.2311" stroke="white" stroke-opacity="0.04" stroke-width="0.984621"/>
<rect x="344.618" y="49.2374" width="49.2311" height="49.2311" stroke="white" stroke-opacity="0.04" stroke-width="0.984621"/>
<rect x="393.849" y="49.2374" width="49.2311" height="49.2311" stroke="white" stroke-opacity="0.04" stroke-width="0.984621"/>
<rect x="443.08" y="49.2374" width="49.2311" height="49.2311" fill="white" fill-opacity="0.04" stroke="white" stroke-opacity="0.04" stroke-width="0.984621"/>
<rect x="492.311" y="49.2374" width="49.2311" height="49.2311" stroke="white" stroke-opacity="0.04" stroke-width="0.984621"/>
<rect x="541.542" y="49.2374" width="49.2311" height="49.2311" stroke="white" stroke-opacity="0.04" stroke-width="0.984621"/>
<rect x="590.773" y="49.2374" width="49.2311" height="49.2311" stroke="white" stroke-opacity="0.04" stroke-width="0.984621"/>
<rect x="640.004" y="49.2374" width="49.2311" height="49.2311" stroke="white" stroke-opacity="0.04" stroke-width="0.984621"/>
<rect x="689.235" y="49.2374" width="49.2311" height="49.2311" stroke="white" stroke-opacity="0.04" stroke-width="0.984621"/>
<rect x="738.466" y="49.2374" width="49.2311" height="49.2311" stroke="white" stroke-opacity="0.04" stroke-width="0.984621"/>
<rect x="787.697" y="49.2374" width="49.2311" height="49.2311" stroke="white" stroke-opacity="0.04" stroke-width="0.984621"/>
<rect x="836.928" y="49.2374" width="49.2311" height="49.2311" stroke="white" stroke-opacity="0.04" stroke-width="0.984621"/>
<rect x="886.159" y="49.2374" width="49.2311" height="49.2311" stroke="white" stroke-opacity="0.04" stroke-width="0.984621"/>
<rect x="935.391" y="49.2374" width="49.2311" height="49.2311" stroke="white" stroke-opacity="0.04" stroke-width="0.984621"/>
<rect x="984.622" y="49.2374" width="49.2311" height="49.2311" stroke="white" stroke-opacity="0.04" stroke-width="0.984621"/>
<rect x="0.00012207" y="98.4591" width="49.2311" height="49.2311" stroke="white" stroke-opacity="0.04" stroke-width="0.984621"/>
<rect x="49.2312" y="98.4591" width="49.2311" height="49.2311" stroke="white" stroke-opacity="0.04" stroke-width="0.984621"/>
<rect x="98.4623" y="98.4591" width="49.2311" height="49.2311" stroke="white" stroke-opacity="0.04" stroke-width="0.984621"/>
<rect x="147.693" y="98.4591" width="49.2311" height="49.2311" stroke="white" stroke-opacity="0.04" stroke-width="0.984621"/>
<rect x="196.924" y="98.4591" width="49.2311" height="49.2311" stroke="white" stroke-opacity="0.04" stroke-width="0.984621"/>
<rect x="246.156" y="98.4591" width="49.2311" height="49.2311" stroke="white" stroke-opacity="0.04" stroke-width="0.984621"/>
<rect x="295.387" y="98.4591" width="49.2311" height="49.2311" stroke="white" stroke-opacity="0.04" stroke-width="0.984621"/>
<rect x="344.618" y="98.4591" width="49.2311" height="49.2311" stroke="white" stroke-opacity="0.04" stroke-width="0.984621"/>
<rect x="393.849" y="98.4591" width="49.2311" height="49.2311" stroke="white" stroke-opacity="0.04" stroke-width="0.984621"/>
<rect x="443.08" y="98.4591" width="49.2311" height="49.2311" stroke="white" stroke-opacity="0.04" stroke-width="0.984621"/>
<rect x="492.311" y="98.4591" width="49.2311" height="49.2311" stroke="white" stroke-opacity="0.04" stroke-width="0.984621"/>
<rect x="541.542" y="98.4591" width="49.2311" height="49.2311" stroke="white" stroke-opacity="0.04" stroke-width="0.984621"/>
<rect x="590.773" y="98.4591" width="49.2311" height="49.2311" stroke="white" stroke-opacity="0.04" stroke-width="0.984621"/>
<rect x="640.004" y="98.4591" width="49.2311" height="49.2311" stroke="white" stroke-opacity="0.04" stroke-width="0.984621"/>
<rect x="689.235" y="98.4591" width="49.2311" height="49.2311" stroke="white" stroke-opacity="0.04" stroke-width="0.984621"/>
<rect x="738.466" y="98.4591" width="49.2311" height="49.2311" stroke="white" stroke-opacity="0.04" stroke-width="0.984621"/>
<rect x="787.697" y="98.4591" width="49.2311" height="49.2311" fill="white" fill-opacity="0.04" stroke="white" stroke-opacity="0.04" stroke-width="0.984621"/>
<rect x="836.928" y="98.4591" width="49.2311" height="49.2311" stroke="white" stroke-opacity="0.04" stroke-width="0.984621"/>
<rect x="886.159" y="98.4591" width="49.2311" height="49.2311" stroke="white" stroke-opacity="0.04" stroke-width="0.984621"/>
<rect x="935.39" y="98.4591" width="49.2311" height="49.2311" stroke="white" stroke-opacity="0.04" stroke-width="0.984621"/>
<rect x="984.622" y="98.4591" width="49.2311" height="49.2311" stroke="white" stroke-opacity="0.04" stroke-width="0.984621"/>
<rect x="0.00012207" y="147.696" width="49.2311" height="49.2311" stroke="white" stroke-opacity="0.04" stroke-width="0.984621"/>
<rect x="49.2312" y="147.696" width="49.2311" height="49.2311" stroke="white" stroke-opacity="0.04" stroke-width="0.984621"/>
<rect x="98.4623" y="147.696" width="49.2311" height="49.2311" stroke="white" stroke-opacity="0.04" stroke-width="0.984621"/>
<rect x="147.693" y="147.696" width="49.2311" height="49.2311" stroke="white" stroke-opacity="0.04" stroke-width="0.984621"/>
<rect x="196.924" y="147.696" width="49.2311" height="49.2311" stroke="white" stroke-opacity="0.04" stroke-width="0.984621"/>
<rect x="246.156" y="147.696" width="49.2311" height="49.2311" stroke="white" stroke-opacity="0.04" stroke-width="0.984621"/>
<rect x="295.387" y="147.696" width="49.2311" height="49.2311" stroke="white" stroke-opacity="0.04" stroke-width="0.984621"/>
<rect x="344.618" y="147.696" width="49.2311" height="49.2311" stroke="white" stroke-opacity="0.04" stroke-width="0.984621"/>
<rect x="393.849" y="147.696" width="49.2311" height="49.2311" stroke="white" stroke-opacity="0.04" stroke-width="0.984621"/>
<rect x="443.08" y="147.696" width="49.2311" height="49.2311" stroke="white" stroke-opacity="0.04" stroke-width="0.984621"/>
<rect x="492.311" y="147.696" width="49.2311" height="49.2311" stroke="white" stroke-opacity="0.04" stroke-width="0.984621"/>
<rect x="541.542" y="147.696" width="49.2311" height="49.2311" stroke="white" stroke-opacity="0.04" stroke-width="0.984621"/>
<rect x="590.773" y="147.696" width="49.2311" height="49.2311" stroke="white" stroke-opacity="0.04" stroke-width="0.984621"/>
<rect x="640.004" y="147.696" width="49.2311" height="49.2311" stroke="white" stroke-opacity="0.04" stroke-width="0.984621"/>
<rect x="689.235" y="147.696" width="49.2311" height="49.2311" stroke="white" stroke-opacity="0.04" stroke-width="0.984621"/>
<rect x="738.466" y="147.696" width="49.2311" height="49.2311" stroke="white" stroke-opacity="0.04" stroke-width="0.984621"/>
<rect x="787.697" y="147.696" width="49.2311" height="49.2311" stroke="white" stroke-opacity="0.04" stroke-width="0.984621"/>
<rect x="836.928" y="147.696" width="49.2311" height="49.2311" stroke="white" stroke-opacity="0.04" stroke-width="0.984621"/>
<rect x="886.159" y="147.696" width="49.2311" height="49.2311" stroke="white" stroke-opacity="0.04" stroke-width="0.984621"/>
<rect x="935.39" y="147.696" width="49.2311" height="49.2311" stroke="white" stroke-opacity="0.04" stroke-width="0.984621"/>
<rect x="984.622" y="147.696" width="49.2311" height="49.2311" stroke="white" stroke-opacity="0.04" stroke-width="0.984621"/>
<rect x="0.00012207" y="196.918" width="49.2311" height="49.2311" stroke="white" stroke-opacity="0.04" stroke-width="0.984621"/>
<rect x="49.2312" y="196.918" width="49.2311" height="49.2311" stroke="white" stroke-opacity="0.04" stroke-width="0.984621"/>
<rect x="98.4623" y="196.918" width="49.2311" height="49.2311" stroke="white" stroke-opacity="0.04" stroke-width="0.984621"/>
<rect x="147.693" y="196.918" width="49.2311" height="49.2311" fill="white" fill-opacity="0.04" stroke="white" stroke-opacity="0.04" stroke-width="0.984621"/>
<rect x="196.924" y="196.918" width="49.2311" height="49.2311" stroke="white" stroke-opacity="0.04" stroke-width="0.984621"/>
<rect x="246.156" y="196.918" width="49.2311" height="49.2311" stroke="white" stroke-opacity="0.04" stroke-width="0.984621"/>
<rect x="295.387" y="196.918" width="49.2311" height="49.2311" stroke="white" stroke-opacity="0.04" stroke-width="0.984621"/>
<rect x="344.618" y="196.918" width="49.2311" height="49.2311" stroke="white" stroke-opacity="0.04" stroke-width="0.984621"/>
<rect x="393.849" y="196.918" width="49.2311" height="49.2311" stroke="white" stroke-opacity="0.04" stroke-width="0.984621"/>
<rect x="443.08" y="196.918" width="49.2311" height="49.2311" stroke="white" stroke-opacity="0.04" stroke-width="0.984621"/>
<rect x="492.311" y="196.918" width="49.2311" height="49.2311" stroke="white" stroke-opacity="0.04" stroke-width="0.984621"/>
<rect x="541.542" y="196.918" width="49.2311" height="49.2311" stroke="white" stroke-opacity="0.04" stroke-width="0.984621"/>
<rect x="590.773" y="196.918" width="49.2311" height="49.2311" fill="white" fill-opacity="0.04" stroke="white" stroke-opacity="0.04" stroke-width="0.984621"/>
<rect x="640.004" y="196.918" width="49.2311" height="49.2311" stroke="white" stroke-opacity="0.04" stroke-width="0.984621"/>
<rect x="689.235" y="196.918" width="49.2311" height="49.2311" stroke="white" stroke-opacity="0.04" stroke-width="0.984621"/>
<rect x="738.466" y="196.918" width="49.2311" height="49.2311" stroke="white" stroke-opacity="0.04" stroke-width="0.984621"/>
<rect x="787.697" y="196.918" width="49.2311" height="49.2311" stroke="white" stroke-opacity="0.04" stroke-width="0.984621"/>
<rect x="836.928" y="196.918" width="49.2311" height="49.2311" stroke="white" stroke-opacity="0.04" stroke-width="0.984621"/>
<rect x="886.159" y="196.918" width="49.2311" height="49.2311" stroke="white" stroke-opacity="0.04" stroke-width="0.984621"/>
<rect x="935.39" y="196.918" width="49.2311" height="49.2311" stroke="white" stroke-opacity="0.04" stroke-width="0.984621"/>
<rect x="984.622" y="196.918" width="49.2311" height="49.2311" stroke="white" stroke-opacity="0.04" stroke-width="0.984621"/>
<rect x="0.00012207" y="246.155" width="49.2311" height="49.2311" stroke="white" stroke-opacity="0.04" stroke-width="0.984621"/>
<rect x="49.2312" y="246.155" width="49.2311" height="49.2311" stroke="white" stroke-opacity="0.04" stroke-width="0.984621"/>
<rect x="98.4623" y="246.155" width="49.2311" height="49.2311" stroke="white" stroke-opacity="0.04" stroke-width="0.984621"/>
<rect x="147.693" y="246.155" width="49.2311" height="49.2311" stroke="white" stroke-opacity="0.04" stroke-width="0.984621"/>
<rect x="196.924" y="246.155" width="49.2311" height="49.2311" stroke="white" stroke-opacity="0.04" stroke-width="0.984621"/>
<rect x="246.156" y="246.155" width="49.2311" height="49.2311" stroke="white" stroke-opacity="0.04" stroke-width="0.984621"/>
<rect x="295.387" y="246.155" width="49.2311" height="49.2311" stroke="white" stroke-opacity="0.04" stroke-width="0.984621"/>
<rect x="344.618" y="246.155" width="49.2311" height="49.2311" stroke="white" stroke-opacity="0.04" stroke-width="0.984621"/>
<rect x="393.849" y="246.155" width="49.2311" height="49.2311" stroke="white" stroke-opacity="0.04" stroke-width="0.984621"/>
<rect x="443.08" y="246.155" width="49.2311" height="49.2311" stroke="white" stroke-opacity="0.04" stroke-width="0.984621"/>
<rect x="492.311" y="246.155" width="49.2311" height="49.2311" stroke="white" stroke-opacity="0.04" stroke-width="0.984621"/>
<rect x="541.542" y="246.155" width="49.2311" height="49.2311" stroke="white" stroke-opacity="0.04" stroke-width="0.984621"/>
<rect x="590.773" y="246.155" width="49.2311" height="49.2311" stroke="white" stroke-opacity="0.04" stroke-width="0.984621"/>
<rect x="640.004" y="246.155" width="49.2311" height="49.2311" stroke="white" stroke-opacity="0.04" stroke-width="0.984621"/>
<rect x="689.235" y="246.155" width="49.2311" height="49.2311" stroke="white" stroke-opacity="0.04" stroke-width="0.984621"/>
<rect x="738.466" y="246.155" width="49.2311" height="49.2311" stroke="white" stroke-opacity="0.04" stroke-width="0.984621"/>
<rect x="787.697" y="246.155" width="49.2311" height="49.2311" stroke="white" stroke-opacity="0.04" stroke-width="0.984621"/>
<rect x="836.928" y="246.155" width="49.2311" height="49.2311" stroke="white" stroke-opacity="0.04" stroke-width="0.984621"/>
<rect x="886.159" y="246.155" width="49.2311" height="49.2311" fill="white" fill-opacity="0.04" stroke="white" stroke-opacity="0.04" stroke-width="0.984621"/>
<rect x="935.39" y="246.155" width="49.2311" height="49.2311" stroke="white" stroke-opacity="0.04" stroke-width="0.984621"/>
<rect x="984.622" y="246.155" width="49.2311" height="49.2311" stroke="white" stroke-opacity="0.04" stroke-width="0.984621"/>
<rect x="0.00012207" y="295.392" width="49.2311" height="49.2311" stroke="white" stroke-opacity="0.04" stroke-width="0.984621"/>
<rect x="49.2312" y="295.392" width="49.2311" height="49.2311" stroke="white" stroke-opacity="0.04" stroke-width="0.984621"/>
<rect x="98.4623" y="295.392" width="49.2311" height="49.2311" stroke="white" stroke-opacity="0.04" stroke-width="0.984621"/>
<rect x="147.693" y="295.392" width="49.2311" height="49.2311" stroke="white" stroke-opacity="0.04" stroke-width="0.984621"/>
<rect x="196.924" y="295.392" width="49.2311" height="49.2311" stroke="white" stroke-opacity="0.04" stroke-width="0.984621"/>
<rect x="246.156" y="295.392" width="49.2311" height="49.2311" stroke="white" stroke-opacity="0.04" stroke-width="0.984621"/>
<rect x="295.387" y="295.392" width="49.2311" height="49.2311" stroke="white" stroke-opacity="0.04" stroke-width="0.984621"/>
<rect x="344.618" y="295.392" width="49.2311" height="49.2311" stroke="white" stroke-opacity="0.04" stroke-width="0.984621"/>
<rect x="393.849" y="295.392" width="49.2311" height="49.2311" stroke="white" stroke-opacity="0.04" stroke-width="0.984621"/>
<rect x="443.08" y="295.392" width="49.2311" height="49.2311" stroke="white" stroke-opacity="0.04" stroke-width="0.984621"/>
<rect x="492.311" y="295.392" width="49.2311" height="49.2311" stroke="white" stroke-opacity="0.04" stroke-width="0.984621"/>
<rect x="541.542" y="295.392" width="49.2311" height="49.2311" stroke="white" stroke-opacity="0.04" stroke-width="0.984621"/>
<rect x="590.773" y="295.392" width="49.2311" height="49.2311" stroke="white" stroke-opacity="0.04" stroke-width="0.984621"/>
<rect x="640.004" y="295.392" width="49.2311" height="49.2311" stroke="white" stroke-opacity="0.04" stroke-width="0.984621"/>
<rect x="689.235" y="295.392" width="49.2311" height="49.2311" stroke="white" stroke-opacity="0.04" stroke-width="0.984621"/>
<rect x="738.466" y="295.392" width="49.2311" height="49.2311" stroke="white" stroke-opacity="0.04" stroke-width="0.984621"/>
<rect x="787.697" y="295.392" width="49.2311" height="49.2311" stroke="white" stroke-opacity="0.04" stroke-width="0.984621"/>
<rect x="836.928" y="295.392" width="49.2311" height="49.2311" stroke="white" stroke-opacity="0.04" stroke-width="0.984621"/>
<rect x="886.159" y="295.392" width="49.2311" height="49.2311" stroke="white" stroke-opacity="0.04" stroke-width="0.984621"/>
<rect x="935.39" y="295.392" width="49.2311" height="49.2311" stroke="white" stroke-opacity="0.04" stroke-width="0.984621"/>
<rect x="984.622" y="295.392" width="49.2311" height="49.2311" stroke="white" stroke-opacity="0.04" stroke-width="0.984621"/>
<rect x="0.00012207" y="344.614" width="49.2311" height="49.2311" stroke="white" stroke-opacity="0.04" stroke-width="0.984621"/>
<rect x="49.2312" y="344.614" width="49.2311" height="49.2311" stroke="white" stroke-opacity="0.04" stroke-width="0.984621"/>
<rect x="98.4623" y="344.614" width="49.2311" height="49.2311" stroke="white" stroke-opacity="0.04" stroke-width="0.984621"/>
<rect x="147.693" y="344.614" width="49.2311" height="49.2311" stroke="white" stroke-opacity="0.04" stroke-width="0.984621"/>
<rect x="196.924" y="344.614" width="49.2311" height="49.2311" stroke="white" stroke-opacity="0.04" stroke-width="0.984621"/>
<rect x="246.156" y="344.614" width="49.2311" height="49.2311" stroke="white" stroke-opacity="0.04" stroke-width="0.984621"/>
<rect x="295.387" y="344.614" width="49.2311" height="49.2311" stroke="white" stroke-opacity="0.04" stroke-width="0.984621"/>
<rect x="344.618" y="344.614" width="49.2311" height="49.2311" stroke="white" stroke-opacity="0.04" stroke-width="0.984621"/>
<rect x="393.849" y="344.614" width="49.2311" height="49.2311" fill="white" fill-opacity="0.04" stroke="white" stroke-opacity="0.04" stroke-width="0.984621"/>
<rect x="443.08" y="344.614" width="49.2311" height="49.2311" stroke="white" stroke-opacity="0.04" stroke-width="0.984621"/>
<rect x="492.311" y="344.614" width="49.2311" height="49.2311" stroke="white" stroke-opacity="0.04" stroke-width="0.984621"/>
<rect x="541.542" y="344.614" width="49.2311" height="49.2311" stroke="white" stroke-opacity="0.04" stroke-width="0.984621"/>
<rect x="590.773" y="344.614" width="49.2311" height="49.2311" stroke="white" stroke-opacity="0.04" stroke-width="0.984621"/>
<rect x="640.004" y="344.614" width="49.2311" height="49.2311" stroke="white" stroke-opacity="0.04" stroke-width="0.984621"/>
<rect x="689.235" y="344.614" width="49.2311" height="49.2311" stroke="white" stroke-opacity="0.04" stroke-width="0.984621"/>
<rect x="738.466" y="344.614" width="49.2311" height="49.2311" stroke="white" stroke-opacity="0.04" stroke-width="0.984621"/>
<rect x="787.697" y="344.614" width="49.2311" height="49.2311" stroke="white" stroke-opacity="0.04" stroke-width="0.984621"/>
<rect x="836.928" y="344.614" width="49.2311" height="49.2311" stroke="white" stroke-opacity="0.04" stroke-width="0.984621"/>
<rect x="886.159" y="344.614" width="49.2311" height="49.2311" stroke="white" stroke-opacity="0.04" stroke-width="0.984621"/>
<rect x="935.39" y="344.614" width="49.2311" height="49.2311" stroke="white" stroke-opacity="0.04" stroke-width="0.984621"/>
<rect x="984.622" y="344.614" width="49.2311" height="49.2311" stroke="white" stroke-opacity="0.04" stroke-width="0.984621"/>
<rect x="0.00012207" y="393.851" width="49.2311" height="49.2311" stroke="white" stroke-opacity="0.04" stroke-width="0.984621"/>
<rect x="49.2312" y="393.851" width="49.2311" height="49.2311" stroke="white" stroke-opacity="0.04" stroke-width="0.984621"/>
<rect x="98.4623" y="393.851" width="49.2311" height="49.2311" stroke="white" stroke-opacity="0.04" stroke-width="0.984621"/>
<rect x="147.693" y="393.851" width="49.2311" height="49.2311" stroke="white" stroke-opacity="0.04" stroke-width="0.984621"/>
<rect x="196.924" y="393.851" width="49.2311" height="49.2311" fill="white" fill-opacity="0.04" stroke="white" stroke-opacity="0.04" stroke-width="0.984621"/>
<rect x="246.156" y="393.851" width="49.2311" height="49.2311" stroke="white" stroke-opacity="0.04" stroke-width="0.984621"/>
<rect x="295.387" y="393.851" width="49.2311" height="49.2311" stroke="white" stroke-opacity="0.04" stroke-width="0.984621"/>
<rect x="344.618" y="393.851" width="49.2311" height="49.2311" stroke="white" stroke-opacity="0.04" stroke-width="0.984621"/>
<rect x="393.849" y="393.851" width="49.2311" height="49.2311" stroke="white" stroke-opacity="0.04" stroke-width="0.984621"/>
<rect x="443.08" y="393.851" width="49.2311" height="49.2311" stroke="white" stroke-opacity="0.04" stroke-width="0.984621"/>
<rect x="492.311" y="393.851" width="49.2311" height="49.2311" stroke="white" stroke-opacity="0.04" stroke-width="0.984621"/>
<rect x="541.542" y="393.851" width="49.2311" height="49.2311" stroke="white" stroke-opacity="0.04" stroke-width="0.984621"/>
<rect x="590.773" y="393.851" width="49.2311" height="49.2311" stroke="white" stroke-opacity="0.04" stroke-width="0.984621"/>
<rect x="640.004" y="393.851" width="49.2311" height="49.2311" stroke="white" stroke-opacity="0.04" stroke-width="0.984621"/>
<rect x="689.235" y="393.851" width="49.2311" height="49.2311" stroke="white" stroke-opacity="0.04" stroke-width="0.984621"/>
<rect x="738.466" y="393.851" width="49.2311" height="49.2311" stroke="white" stroke-opacity="0.04" stroke-width="0.984621"/>
<rect x="787.697" y="393.851" width="49.2311" height="49.2311" stroke="white" stroke-opacity="0.04" stroke-width="0.984621"/>
<rect x="836.928" y="393.851" width="49.2311" height="49.2311" stroke="white" stroke-opacity="0.04" stroke-width="0.984621"/>
<rect x="886.159" y="393.851" width="49.2311" height="49.2311" stroke="white" stroke-opacity="0.04" stroke-width="0.984621"/>
<rect x="935.39" y="393.851" width="49.2311" height="49.2311" stroke="white" stroke-opacity="0.04" stroke-width="0.984621"/>
<rect x="984.622" y="393.851" width="49.2311" height="49.2311" stroke="white" stroke-opacity="0.04" stroke-width="0.984621"/>
<rect x="0.00012207" y="443.089" width="49.2311" height="49.2311" stroke="white" stroke-opacity="0.04" stroke-width="0.984621"/>
<rect x="49.2312" y="443.089" width="49.2311" height="49.2311" stroke="white" stroke-opacity="0.04" stroke-width="0.984621"/>
<rect x="98.4623" y="443.089" width="49.2311" height="49.2311" stroke="white" stroke-opacity="0.04" stroke-width="0.984621"/>
<rect x="147.693" y="443.089" width="49.2311" height="49.2311" stroke="white" stroke-opacity="0.04" stroke-width="0.984621"/>
<rect x="196.924" y="443.089" width="49.2311" height="49.2311" stroke="white" stroke-opacity="0.04" stroke-width="0.984621"/>
<rect x="246.156" y="443.089" width="49.2311" height="49.2311" stroke="white" stroke-opacity="0.04" stroke-width="0.984621"/>
<rect x="295.387" y="443.089" width="49.2311" height="49.2311" stroke="white" stroke-opacity="0.04" stroke-width="0.984621"/>
<rect x="344.618" y="443.089" width="49.2311" height="49.2311" stroke="white" stroke-opacity="0.04" stroke-width="0.984621"/>
<rect x="393.849" y="443.089" width="49.2311" height="49.2311" stroke="white" stroke-opacity="0.04" stroke-width="0.984621"/>
<rect x="443.08" y="443.089" width="49.2311" height="49.2311" stroke="white" stroke-opacity="0.04" stroke-width="0.984621"/>
<rect x="492.311" y="443.089" width="49.2311" height="49.2311" stroke="white" stroke-opacity="0.04" stroke-width="0.984621"/>
<rect x="541.542" y="443.089" width="49.2311" height="49.2311" stroke="white" stroke-opacity="0.04" stroke-width="0.984621"/>
<rect x="590.773" y="443.089" width="49.2311" height="49.2311" stroke="white" stroke-opacity="0.04" stroke-width="0.984621"/>
<rect x="640.004" y="443.089" width="49.2311" height="49.2311" stroke="white" stroke-opacity="0.04" stroke-width="0.984621"/>
<rect x="689.235" y="443.089" width="49.2311" height="49.2311" stroke="white" stroke-opacity="0.04" stroke-width="0.984621"/>
<rect x="738.466" y="443.089" width="49.2311" height="49.2311" stroke="white" stroke-opacity="0.04" stroke-width="0.984621"/>
<rect x="787.697" y="443.089" width="49.2311" height="49.2311" stroke="white" stroke-opacity="0.04" stroke-width="0.984621"/>
<rect x="836.928" y="443.089" width="49.2311" height="49.2311" stroke="white" stroke-opacity="0.04" stroke-width="0.984621"/>
<rect x="886.159" y="443.089" width="49.2311" height="49.2311" stroke="white" stroke-opacity="0.04" stroke-width="0.984621"/>
<rect x="935.39" y="443.089" width="49.2311" height="49.2311" stroke="white" stroke-opacity="0.04" stroke-width="0.984621"/>
<rect x="984.622" y="443.089" width="49.2311" height="49.2311" stroke="white" stroke-opacity="0.04" stroke-width="0.984621"/>
<rect x="0.00012207" y="492.308" width="49.2311" height="49.2311" stroke="white" stroke-opacity="0.04" stroke-width="0.984621"/>
<rect x="49.2312" y="492.308" width="49.2311" height="49.2311" stroke="white" stroke-opacity="0.04" stroke-width="0.984621"/>
<rect x="98.4623" y="492.308" width="49.2311" height="49.2311" stroke="white" stroke-opacity="0.04" stroke-width="0.984621"/>
<rect x="147.693" y="492.308" width="49.2311" height="49.2311" stroke="white" stroke-opacity="0.04" stroke-width="0.984621"/>
<rect x="196.924" y="492.308" width="49.2311" height="49.2311" stroke="white" stroke-opacity="0.04" stroke-width="0.984621"/>
<rect x="246.156" y="492.308" width="49.2311" height="49.2311" stroke="white" stroke-opacity="0.04" stroke-width="0.984621"/>
<rect x="295.387" y="492.308" width="49.2311" height="49.2311" stroke="white" stroke-opacity="0.04" stroke-width="0.984621"/>
<rect x="344.618" y="492.308" width="49.2311" height="49.2311" stroke="white" stroke-opacity="0.04" stroke-width="0.984621"/>
<rect x="393.849" y="492.308" width="49.2311" height="49.2311" stroke="white" stroke-opacity="0.04" stroke-width="0.984621"/>
<rect x="443.08" y="492.308" width="49.2311" height="49.2311" stroke="white" stroke-opacity="0.04" stroke-width="0.984621"/>
<rect x="492.311" y="492.308" width="49.2311" height="49.2311" stroke="white" stroke-opacity="0.04" stroke-width="0.984621"/>
<rect x="541.542" y="492.308" width="49.2311" height="49.2311" stroke="white" stroke-opacity="0.04" stroke-width="0.984621"/>
<rect x="590.773" y="492.308" width="49.2311" height="49.2311" stroke="white" stroke-opacity="0.04" stroke-width="0.984621"/>
<rect x="640.004" y="492.308" width="49.2311" height="49.2311" stroke="white" stroke-opacity="0.04" stroke-width="0.984621"/>
<rect x="689.235" y="492.308" width="49.2311" height="49.2311" stroke="white" stroke-opacity="0.04" stroke-width="0.984621"/>
<rect x="738.466" y="492.308" width="49.2311" height="49.2311" stroke="white" stroke-opacity="0.04" stroke-width="0.984621"/>
<rect x="787.697" y="492.308" width="49.2311" height="49.2311" stroke="white" stroke-opacity="0.04" stroke-width="0.984621"/>
<rect x="836.928" y="492.308" width="49.2311" height="49.2311" stroke="white" stroke-opacity="0.04" stroke-width="0.984621"/>
<rect x="886.159" y="492.308" width="49.2311" height="49.2311" stroke="white" stroke-opacity="0.04" stroke-width="0.984621"/>
<rect x="935.39" y="492.308" width="49.2311" height="49.2311" stroke="white" stroke-opacity="0.04" stroke-width="0.984621"/>
<rect x="984.622" y="492.308" width="49.2311" height="49.2311" stroke="white" stroke-opacity="0.04" stroke-width="0.984621"/>
<rect x="0.00012207" y="541.545" width="49.2311" height="49.2311" stroke="white" stroke-opacity="0.04" stroke-width="0.984621"/>
<rect x="49.2312" y="541.545" width="49.2311" height="49.2311" stroke="white" stroke-opacity="0.04" stroke-width="0.984621"/>
<rect x="98.4623" y="541.545" width="49.2311" height="49.2311" stroke="white" stroke-opacity="0.04" stroke-width="0.984621"/>
<rect x="147.693" y="541.545" width="49.2311" height="49.2311" stroke="white" stroke-opacity="0.04" stroke-width="0.984621"/>
<rect x="196.924" y="541.545" width="49.2311" height="49.2311" stroke="white" stroke-opacity="0.04" stroke-width="0.984621"/>
<rect x="246.156" y="541.545" width="49.2311" height="49.2311" stroke="white" stroke-opacity="0.04" stroke-width="0.984621"/>
<rect x="295.387" y="541.545" width="49.2311" height="49.2311" stroke="white" stroke-opacity="0.04" stroke-width="0.984621"/>
<rect x="344.618" y="541.545" width="49.2311" height="49.2311" stroke="white" stroke-opacity="0.04" stroke-width="0.984621"/>
<rect x="393.849" y="541.545" width="49.2311" height="49.2311" stroke="white" stroke-opacity="0.04" stroke-width="0.984621"/>
<rect x="443.08" y="541.545" width="49.2311" height="49.2311" stroke="white" stroke-opacity="0.04" stroke-width="0.984621"/>
<rect x="492.311" y="541.545" width="49.2311" height="49.2311" stroke="white" stroke-opacity="0.04" stroke-width="0.984621"/>
<rect x="541.542" y="541.545" width="49.2311" height="49.2311" stroke="white" stroke-opacity="0.04" stroke-width="0.984621"/>
<rect x="590.773" y="541.545" width="49.2311" height="49.2311" stroke="white" stroke-opacity="0.04" stroke-width="0.984621"/>
<rect x="640.004" y="541.545" width="49.2311" height="49.2311" stroke="white" stroke-opacity="0.04" stroke-width="0.984621"/>
<rect x="689.235" y="541.545" width="49.2311" height="49.2311" stroke="white" stroke-opacity="0.04" stroke-width="0.984621"/>
<rect x="738.466" y="541.545" width="49.2311" height="49.2311" stroke="white" stroke-opacity="0.04" stroke-width="0.984621"/>
<rect x="787.697" y="541.545" width="49.2311" height="49.2311" stroke="white" stroke-opacity="0.04" stroke-width="0.984621"/>
<rect x="836.928" y="541.545" width="49.2311" height="49.2311" stroke="white" stroke-opacity="0.04" stroke-width="0.984621"/>
<rect x="886.159" y="541.545" width="49.2311" height="49.2311" stroke="white" stroke-opacity="0.04" stroke-width="0.984621"/>
<rect x="935.39" y="541.545" width="49.2311" height="49.2311" stroke="white" stroke-opacity="0.04" stroke-width="0.984621"/>
<rect x="984.622" y="541.545" width="49.2311" height="49.2311" stroke="white" stroke-opacity="0.04" stroke-width="0.984621"/>
<rect x="0.00012207" y="590.769" width="49.2311" height="49.2311" stroke="white" stroke-opacity="0.04" stroke-width="0.984621"/>
<rect x="49.2312" y="590.769" width="49.2311" height="49.2311" stroke="white" stroke-opacity="0.04" stroke-width="0.984621"/>
<rect x="98.4623" y="590.769" width="49.2311" height="49.2311" stroke="white" stroke-opacity="0.04" stroke-width="0.984621"/>
<rect x="147.693" y="590.769" width="49.2311" height="49.2311" stroke="white" stroke-opacity="0.04" stroke-width="0.984621"/>
<rect x="196.924" y="590.769" width="49.2311" height="49.2311" stroke="white" stroke-opacity="0.04" stroke-width="0.984621"/>
<rect x="246.156" y="590.769" width="49.2311" height="49.2311" stroke="white" stroke-opacity="0.04" stroke-width="0.984621"/>
<rect x="295.387" y="590.769" width="49.2311" height="49.2311" stroke="white" stroke-opacity="0.04" stroke-width="0.984621"/>
<rect x="344.618" y="590.769" width="49.2311" height="49.2311" stroke="white" stroke-opacity="0.04" stroke-width="0.984621"/>
<rect x="393.849" y="590.769" width="49.2311" height="49.2311" stroke="white" stroke-opacity="0.04" stroke-width="0.984621"/>
<rect x="443.08" y="590.769" width="49.2311" height="49.2311" stroke="white" stroke-opacity="0.04" stroke-width="0.984621"/>
<rect x="492.311" y="590.769" width="49.2311" height="49.2311" stroke="white" stroke-opacity="0.04" stroke-width="0.984621"/>
<rect x="541.542" y="590.769" width="49.2311" height="49.2311" stroke="white" stroke-opacity="0.04" stroke-width="0.984621"/>
<rect x="590.773" y="590.769" width="49.2311" height="49.2311" stroke="white" stroke-opacity="0.04" stroke-width="0.984621"/>
<rect x="640.004" y="590.769" width="49.2311" height="49.2311" stroke="white" stroke-opacity="0.04" stroke-width="0.984621"/>
<rect x="689.235" y="590.769" width="49.2311" height="49.2311" stroke="white" stroke-opacity="0.04" stroke-width="0.984621"/>
<rect x="738.466" y="590.769" width="49.2311" height="49.2311" stroke="white" stroke-opacity="0.04" stroke-width="0.984621"/>
<rect x="787.697" y="590.769" width="49.2311" height="49.2311" stroke="white" stroke-opacity="0.04" stroke-width="0.984621"/>
<rect x="836.928" y="590.769" width="49.2311" height="49.2311" stroke="white" stroke-opacity="0.04" stroke-width="0.984621"/>
<rect x="886.159" y="590.769" width="49.2311" height="49.2311" stroke="white" stroke-opacity="0.04" stroke-width="0.984621"/>
<rect x="935.39" y="590.769" width="49.2311" height="49.2311" stroke="white" stroke-opacity="0.04" stroke-width="0.984621"/>
<rect x="984.622" y="590.769" width="49.2311" height="49.2311" stroke="white" stroke-opacity="0.04" stroke-width="0.984621"/>
</mask>
<g mask="url(#mask0_7101_741)">
<ellipse cx="517" cy="320" rx="517" ry="320" fill="url(#paint0_radial_7101_741)"/>
</g>
<defs>
<radialGradient id="paint0_radial_7101_741" cx="0" cy="0" r="1" gradientUnits="userSpaceOnUse" gradientTransform="translate(517 320) rotate(90) scale(320 517)">
<stop stop-color="white"/>
<stop offset="1"/>
</radialGradient>
</defs>
</svg>
